<svg width="29" height="37" viewBox="0 0 29 37" fill="none" xmlns="http://www.w3.org/2000/svg">
<path d="M12.5302 0.199131C12.4786 0.339256 12.4712 1.27588 12.5081 3.14176C12.5376 4.64626 12.5376 6.03276 12.5081 6.21713L12.4565 6.56376H9.33687C7.01375 6.56376 6.2025 6.58588 6.13612 6.65226C6.01075 6.77763 6.01075 9.37363 6.13612 9.49901C6.2025 9.56538 7.01375 9.58751 9.33687 9.58751H12.4491L12.4934 10.1923C12.5229 10.5315 12.5302 12.3531 12.5229 14.2485L12.5007 17.6926L11.9845 17.7811C7.7955 18.4818 3.98262 21.2843 1.50462 25.4954C0.848247 26.6016 0.708122 26.9556 0.803997 27.2359C0.988372 27.7521 2.41175 29.9204 3.24512 30.9603C3.44425 31.211 3.61387 31.4323 3.61387 31.447C3.61387 31.4544 3.38525 31.624 3.105 31.8084C1.93975 32.5828 0.00012207 34.4118 0.00012207 34.7436C0.00012207 34.8616 0.236122 35.1493 0.767122 35.6803C1.47512 36.3883 1.55625 36.4473 1.748 36.403C1.87337 36.3661 2.27162 36.0343 2.72887 35.5844C3.54012 34.7731 4.21125 34.2126 5.0225 33.6595L5.50925 33.3203L6.25412 33.8734C8.08312 35.2304 9.52862 35.9605 11.3207 36.4178C12.5892 36.7423 13.3562 36.8308 14.5657 36.7791C16.0776 36.7054 17.4641 36.3588 18.917 35.6655C19.6766 35.3041 21.1442 34.397 21.985 33.7628C22.2947 33.5268 22.575 33.335 22.6045 33.335C22.752 33.335 24.4187 34.6846 25.2447 35.4664C26.4542 36.6169 26.41 36.6095 27.3466 35.6729C28.2759 34.7436 28.2759 34.751 27.2286 33.7185C26.7935 33.2834 25.9896 32.5901 25.4291 32.1698L24.4261 31.4028L24.9497 30.7316C26.2035 29.1239 27.2507 27.5309 27.3319 27.0884C27.3835 26.8081 27.1475 26.3509 26.2772 25.0234C23.696 21.0851 20.3109 18.6293 16.3505 17.8254L15.5466 17.6631L15.5392 13.6438L15.5245 9.62438L18.6515 9.60226C20.8124 9.59488 21.808 9.55801 21.8817 9.50638C21.9555 9.44001 21.9776 9.10813 21.9776 8.07563C21.9776 7.04313 21.9555 6.71126 21.8817 6.64488C21.808 6.59326 20.8124 6.55638 18.6515 6.54901L15.5245 6.52688V3.33351C15.5245 0.575256 15.5097 0.132759 15.4139 0.0737572C15.3549 0.0368805 14.6985 7.62939e-06 13.9536 7.62939e-06H12.6114L12.5302 0.199131ZM12.4786 23.1723C12.5007 26.3214 12.486 26.2108 13.0391 26.7123C13.7914 27.3908 14.8607 27.1695 15.3622 26.2255C15.5171 25.9305 15.5245 25.842 15.5466 23.1354C15.5687 20.5615 15.5835 20.3476 15.6941 20.3845C15.7605 20.3993 15.967 20.4435 16.1514 20.4656C16.6824 20.5468 17.9214 20.9819 18.5925 21.3138C20.7312 22.3905 22.3464 23.8876 23.932 26.2698L24.3524 26.9114L24.0205 27.4645C23.6886 28.0103 22.7594 29.323 22.3685 29.7803L22.162 30.0163L21.4982 29.7286C16.97 27.7669 10.7381 27.789 6.468 29.7729C6.15825 29.9204 5.88537 30.0236 5.87062 30.0089C4.76437 28.6888 3.64337 27.0589 3.71712 26.8745C3.73925 26.8155 3.99 26.4246 4.27025 26.0116C6.03287 23.4304 8.02412 21.7784 10.4726 20.8713C11.1732 20.6131 12.0435 20.3624 12.2942 20.3624L12.4565 20.355L12.4786 23.1723ZM15.5319 30.975C17.324 31.1151 20.1634 31.7789 20.0159 32.0149C19.9347 32.155 18.8654 32.8261 18.2385 33.1433C16.8077 33.8586 15.5392 34.1684 14.0495 34.1684C12.6851 34.1684 11.483 33.8808 10.0744 33.2244C9.32212 32.8704 8.03887 32.1034 8.03887 32.0001C8.03887 31.9411 8.887 31.6609 9.69825 31.4544C11.5862 30.9898 13.5849 30.8201 15.5319 30.975Z" fill="#260046"/>
</svg>
